<svg id="Ebene_1" data-name="Ebene 1" xmlns="http://www.w3.org/2000/svg" viewBox="0 0 198.93 62.35"><defs><style>.cls-1{fill:#fff;}.cls-2{fill:#305bff;}</style></defs><title>Zeichenfläche 1</title><polygon class="cls-1" points="26.91 -0.05 0.26 15.54 0.26 46.71 26.91 62.3 53.55 46.71 53.55 15.54 26.91 -0.05"/><polygon class="cls-2" points="26.91 31.01 26.91 12.39 10.89 21.7 10.89 40.33 26.91 31.01"/><polygon class="cls-2" points="10.89 40.33 26.91 31.02 42.92 40.33 26.91 49.75 10.89 40.33"/><path class="cls-1" d="M186.14,32.23l3.14-6.92,3.11,6.92Zm3.5-12h-.73l-9.68,21.31h2.66L185,34.67h8.46l3.16,6.86h2.55Zm-23,3.16H170a6.59,6.59,0,0,1,3.58.77,2.76,2.76,0,0,1,1.15,2.47,2.71,2.71,0,0,1-1.18,2.46,6.65,6.65,0,0,1-3.64.74h-3.27Zm3.83,8.79a7.32,7.32,0,0,0,5-1.52,5.16,5.16,0,0,0,1.74-4.08,5.67,5.67,0,0,0-.53-2.45,4.88,4.88,0,0,0-1.46-1.8,5.68,5.68,0,0,0-2.18-1,24.52,24.52,0,0,0-4.62-.29h-4.2v20.5h2.41V32.17h.84l7.22,9.36h3Zm-22,.06,3.13-6.92,3.11,6.92Zm3.5-12h-.73l-9.69,21.31h2.66l3.14-6.86h8.45l3.17,6.86h2.54Zm-11,.81H129.47v2.35H134V41.53h2.43V23.38h4.48ZM127,21h-2.38V36.09L111.49,21h-.72v20.5h2.46V26.66l13,14.87H127ZM95.06,32.23l3.14-6.92,3.1,6.92Zm3.5-12h-.73L88.14,41.53H90.8l3.14-6.86h8.46l3.16,6.86h2.55ZM84.62,36.35a9.17,9.17,0,0,1-13.29,1,8,8,0,0,1-2.48-6,8.1,8.1,0,0,1,2.54-6,8.35,8.35,0,0,1,6-2.46,9,9,0,0,1,7.2,3.53L86.46,25a10.21,10.21,0,0,0-3.9-3.32,11.94,11.94,0,0,0-5.29-1.13,11.2,11.2,0,0,0-5.51,1.4,10.22,10.22,0,0,0-4,3.86,10.45,10.45,0,0,0-1.44,5.38A10.5,10.5,0,0,0,69.44,39a10.86,10.86,0,0,0,8,3.08,10.85,10.85,0,0,0,9.07-4.26Z"/></svg>