<svg width="1440" height="574" xmlns="http://www.w3.org/2000/svg">

 <g>
  <title>background</title>
  <rect fill="none" id="canvas_background" height="576" width="1442" y="-1" x="-1"/>
 </g>
 <g>
  <title>Layer 1</title>
  <path id="svg_1" d="m0,320l30,-21.3c30,-21.7 90,-63.7 150,-80c60,-15.7 120,-5.7 180,5.3c60,11 120,21 180,10.7c60,-10.7 120,-42.7 180,-74.7c60,-32 120,-64 180,-48c60,16 120,80 180,90.7c60,10.3 120,-31.7 180,-58.7c60,-27 120,-37 150,-42.7l30,-5.3l0,224l-30,0c-30,0 -90,0 -150,0c-60,0 -120,0 -180,0c-60,0 -120,0 -180,0c-60,0 -120,0 -180,0c-60,0 -120,0 -180,0c-60,0 -120,0 -180,0c-60,0 -120,0 -180,0c-60,0 -120,0 -150,0l-30,0z" fill="#305bff"/>
  <rect stroke="#000" id="svg_2" height="255" width="1440" y="319" x="0" stroke-width="0" fill="#305bff"/>
 </g>
</svg>